<mxfile host="app.diagrams.net" modified="2021-05-25T07:24:27.195Z" agent="5.0 (Windows NT 10.0; Win64; x64) AppleWebKit/537.36 (KHTML, like Gecko) Chrome/90.0.4430.212 Safari/537.36 Edg/90.0.818.66" etag="HSzTwHomOPADGMNJA0qY" version="14.7.0" type="github">
  <diagram id="lbAAsV1m7B067yp3UuQr" name="Page-1">
    <mxGraphModel dx="1422" dy="794" grid="1" gridSize="10" guides="1" tooltips="1" connect="1" arrows="1" fold="1" page="1" pageScale="1" pageWidth="827" pageHeight="1169" math="0" shadow="0">
      <root>
        <mxCell id="0" />
        <mxCell id="1" parent="0" />
        <mxCell id="15oiG__rq23FZUC0HzK5-1" value="ram8192" style="rounded=0;whiteSpace=wrap;html=1;" vertex="1" parent="1">
          <mxGeometry x="140" y="150" width="310" height="60" as="geometry" />
        </mxCell>
        <mxCell id="15oiG__rq23FZUC0HzK5-2" value="12khz@16bit_pcm" style="shape=flexArrow;endArrow=classic;html=1;width=30;endSize=10;" edge="1" parent="1">
          <mxGeometry width="50" height="50" relative="1" as="geometry">
            <mxPoint y="180" as="sourcePoint" />
            <mxPoint x="140" y="179.5" as="targetPoint" />
          </mxGeometry>
        </mxCell>
        <mxCell id="15oiG__rq23FZUC0HzK5-3" value="FFT8192" style="rounded=0;whiteSpace=wrap;html=1;" vertex="1" parent="1">
          <mxGeometry x="230" y="290" width="120" height="60" as="geometry" />
        </mxCell>
        <mxCell id="15oiG__rq23FZUC0HzK5-5" value="" style="endArrow=classic;html=1;" edge="1" parent="1">
          <mxGeometry width="50" height="50" relative="1" as="geometry">
            <mxPoint x="295" y="210" as="sourcePoint" />
            <mxPoint x="294.5" y="290" as="targetPoint" />
          </mxGeometry>
        </mxCell>
        <mxCell id="15oiG__rq23FZUC0HzK5-6" value="音频数据以12khz速率写入FIFO，当fifo大于（）" style="shape=callout;whiteSpace=wrap;html=1;perimeter=calloutPerimeter;" vertex="1" parent="1">
          <mxGeometry x="294" y="70" width="120" height="80" as="geometry" />
        </mxCell>
        <mxCell id="15oiG__rq23FZUC0HzK5-7" value="" style="endArrow=classic;html=1;entryX=0;entryY=0.583;entryDx=0;entryDy=0;entryPerimeter=0;" edge="1" parent="1" target="15oiG__rq23FZUC0HzK5-3">
          <mxGeometry width="50" height="50" relative="1" as="geometry">
            <mxPoint x="80" y="325" as="sourcePoint" />
            <mxPoint x="210" y="315" as="targetPoint" />
          </mxGeometry>
        </mxCell>
        <mxCell id="15oiG__rq23FZUC0HzK5-8" value="12k 8192点&lt;br&gt;Time:683ms&lt;br&gt;F：1.46HZ" style="whiteSpace=wrap;html=1;aspect=fixed;" vertex="1" parent="1">
          <mxGeometry x="827" y="80" width="220" height="220" as="geometry" />
        </mxCell>
      </root>
    </mxGraphModel>
  </diagram>
</mxfile>
